<?xml version="1.0" standalone="no"?>
<!DOCTYPE svg PUBLIC "-//W3C//DTD SVG 20010904//EN"
 "http://www.w3.org/TR/2001/REC-SVG-20010904/DTD/svg10.dtd">
<svg version="1.0" xmlns="http://www.w3.org/2000/svg"
 width="260.000000pt" height="260.000000pt" viewBox="0 0 260.000000 260.000000"
 preserveAspectRatio="xMidYMid meet">
<metadata>
Created by potrace 1.14, written by Peter Selinger 2001-2017
</metadata>
<g transform="translate(0.000000,260.000000) scale(0.100000,-0.100000)"
fill="#000000" stroke="none">
<path d="M1200 2593 c-136 -15 -267 -75 -371 -171 -50 -47 -78 -45 -116 7 -45
60 -63 71 -123 70 -75 0 -118 -23 -147 -79 -20 -38 -23 -55 -19 -109 3 -38 14
-77 26 -98 22 -37 19 -53 -10 -53 -28 0 -93 -38 -115 -68 -16 -21 -20 -43 -20
-97 0 -61 4 -75 25 -102 14 -17 46 -41 72 -54 l48 -22 -32 -56 c-79 -139 -87
-174 -83 -355 2 -78 6 -152 9 -166 3 -14 8 -45 11 -70 14 -111 50 -260 90
-366 l25 -67 -69 -67 c-81 -79 -95 -115 -77 -203 9 -49 64 -103 143 -141 l61
-29 -19 -53 c-28 -80 -14 -142 46 -198 35 -34 62 -46 105 -46 55 0 99 20 136
61 68 78 83 80 205 19 126 -64 155 -72 269 -76 154 -5 249 24 404 124 l69 45
21 -29 c52 -71 105 -98 180 -88 63 8 88 25 118 83 21 41 28 67 28 112 l0 59
37 -4 c39 -5 96 18 124 50 23 26 49 106 45 140 -2 16 -4 35 -5 42 -1 14 -38
52 -95 97 -45 35 -45 46 2 175 32 87 64 204 77 275 4 22 9 51 12 65 2 14 5 72
6 130 0 82 -6 130 -27 220 -15 63 -29 122 -31 131 -15 68 -61 188 -110 291
-15 32 -16 30 49 48 50 14 110 63 126 104 11 31 2 85 -20 122 -24 38 -67 60
-137 70 -28 3 -54 12 -57 20 -3 7 -1 36 3 64 16 98 -55 190 -145 190 -76 -1
-161 -56 -189 -124 -18 -43 -16 -43 -120 34 -145 106 -300 157 -435 143z m345
-477 c193 -12 289 -26 314 -45 26 -20 35 -80 18 -121 -35 -87 -42 -387 -12
-500 4 -16 14 -90 21 -150 2 -19 6 -129 9 -245 4 -197 11 -354 20 -435 13
-122 7 -154 -33 -167 -29 -10 -28 -10 -147 2 -128 13 -702 6 -810 -10 -115
-17 -112 -18 -134 6 -20 22 -26 42 -22 84 5 58 3 238 -4 370 -10 201 -10 518
-1 635 5 52 9 111 11 130 12 140 7 168 -50 281 -43 85 -45 93 -30 109 15 16
55 30 135 45 14 3 75 8 135 11 61 4 111 7 112 8 4 3 390 -3 468 -8z"/>
</g>
</svg>
